HIERARCHY
ROOT Hips
{
	OFFSET 0.717293 88.513641 3.606412
	CHANNELS 6 Xposition Yposition Zposition Zrotation Yrotation Xrotation 
	JOINT Spine
	{
		OFFSET -0.000000 8.814246 -2.080107
		CHANNELS 3 Zrotation Yrotation Xrotation
		JOINT Spine1
		{
			OFFSET -0.000000 8.844141 -0.000000
			CHANNELS 3 Zrotation Yrotation Xrotation
			JOINT Spine2
			{
				OFFSET 0.000000 11.682268 0.000000
				CHANNELS 3 Zrotation Yrotation Xrotation
				JOINT Spine3
				{
					OFFSET 0.000000 11.746700 -0.000000
					CHANNELS 3 Zrotation Yrotation Xrotation
					JOINT Neck
					{
						OFFSET 0.000000 17.658264 0.000000
						CHANNELS 3 Zrotation Yrotation Xrotation
						JOINT Neck1
						{
							OFFSET -0.000000 5.101515 -0.000000
							CHANNELS 3 Zrotation Yrotation Xrotation
							JOINT Head
							{
								OFFSET -0.000000 5.101515 -0.000000
								CHANNELS 3 Zrotation Yrotation Xrotation
								JOINT HeadEnd
								{
									OFFSET -0.000000 11.655085 -0.000000
									CHANNELS 3 Zrotation Yrotation Xrotation
									End Site
									{
										OFFSET 0.000000 0.000000 0.000000
									}
								}
							}
						}
					}
					JOINT RightShoulder
					{
						OFFSET -2.625389 11.175210 -0.000000
						CHANNELS 3 Zrotation Yrotation Xrotation
						JOINT RightArm
						{
							OFFSET 0.000000 10.434715 0.000000
							CHANNELS 3 Zrotation Yrotation Xrotation
							JOINT RightForeArm
							{
								OFFSET 0.000000 29.628420 0.000000
								CHANNELS 3 Zrotation Yrotation Xrotation
								JOINT RightHand
								{
									OFFSET 0.000000 22.857611 -0.000000
									CHANNELS 3 Zrotation Yrotation Xrotation
									JOINT RightHandThumb1
									{
										OFFSET -2.867323 3.959563 2.944291
										CHANNELS 3 Zrotation Yrotation Xrotation
										JOINT RightHandThumb2
										{
											OFFSET 0.000000 3.350399 -0.000000
											CHANNELS 3 Zrotation Yrotation Xrotation
											JOINT RightHandThumb3
											{
												OFFSET 0.000000 3.756509 -0.000000
												CHANNELS 3 Zrotation Yrotation Xrotation
												JOINT RightHandThumb4
												{
													OFFSET -0.000000 3.147345 -0.000000
													CHANNELS 3 Zrotation Yrotation Xrotation
													End Site
													{
														OFFSET 0.000000 0.000000 0.000000
													}
												}
											}
										}
									}
									JOINT RightHandIndex1
									{
										OFFSET -0.086752 10.030893 2.345280
										CHANNELS 3 Zrotation Yrotation Xrotation
										JOINT RightHandIndex2
										{
											OFFSET -0.000000 4.061090 -0.000000
											CHANNELS 3 Zrotation Yrotation Xrotation
											JOINT RightHandIndex3
											{
												OFFSET -0.000000 3.248873 0.000000
												CHANNELS 3 Zrotation Yrotation Xrotation
												JOINT RightHandIndex4
												{
													OFFSET -0.000000 2.639709 0.000000
													CHANNELS 3 Zrotation Yrotation Xrotation
													End Site
													{
														OFFSET 0.000000 0.000000 0.000000
													}
												}
											}
										}
									}
									JOINT RightHandMiddle1
									{
										OFFSET 0.104102 9.502952 0.006768
										CHANNELS 3 Zrotation Yrotation Xrotation
										JOINT RightHandMiddle2
										{
											OFFSET 0.000000 4.568727 -0.000000
											CHANNELS 3 Zrotation Yrotation Xrotation
											JOINT RightHandMiddle3
											{
												OFFSET 0.000000 3.654981 -0.000000
												CHANNELS 3 Zrotation Yrotation Xrotation
												JOINT RightHandMiddle4
												{
													OFFSET 0.000000 2.741236 0.000000
													CHANNELS 3 Zrotation Yrotation Xrotation
													End Site
													{
														OFFSET 0.000000 0.000000 0.000000
													}
												}
											}
										}
									}
									JOINT RightHandRing1
									{
										OFFSET 0.086752 8.921708 -2.267442
										CHANNELS 3 Zrotation Yrotation Xrotation
										JOINT RightHandRing2
										{
											OFFSET -0.000000 4.061090 -0.000000
											CHANNELS 3 Zrotation Yrotation Xrotation
											JOINT RightHandRing3
											{
												OFFSET -0.000000 3.654981 0.000000
												CHANNELS 3 Zrotation Yrotation Xrotation
												JOINT RightHandRing4
												{
													OFFSET -0.000000 2.741236 0.000000
													CHANNELS 3 Zrotation Yrotation Xrotation
													End Site
													{
														OFFSET 0.000000 0.000000 0.000000
													}
												}
											}
										}
									}
									JOINT RightHandPinky1
									{
										OFFSET -0.173504 7.976997 -4.467199
										CHANNELS 3 Zrotation Yrotation Xrotation
										JOINT RightHandPinky2
										{
											OFFSET -0.000000 3.350399 -0.000000
											CHANNELS 3 Zrotation Yrotation Xrotation
											JOINT RightHandPinky3
											{
												OFFSET -0.000000 2.842763 0.000000
												CHANNELS 3 Zrotation Yrotation Xrotation
												JOINT RightHandPinky4
												{
													OFFSET 0.000000 2.639709 -0.000000
													CHANNELS 3 Zrotation Yrotation Xrotation
													End Site
													{
														OFFSET 0.000000 0.000000 0.000000
													}
												}
											}
										}
									}
									JOINT RightForeArmEnd
									{
										OFFSET 0.000000 0.000000 0.000000
										CHANNELS 3 Zrotation Yrotation Xrotation
										End Site
										{
											OFFSET 0.000000 0.000000 0.000000
										}
									}
								}
								JOINT RightArmEnd
								{
									OFFSET 0.000000 0.000000 0.000000
									CHANNELS 3 Zrotation Yrotation Xrotation
									End Site
									{
										OFFSET 0.000000 0.000000 0.000000
									}
								}
							}
						}
					}
					JOINT LeftShoulder
					{
						OFFSET 2.625389 11.175210 -0.000000
						CHANNELS 3 Zrotation Yrotation Xrotation
						JOINT LeftArm
						{
							OFFSET 0.000000 10.813635 0.000000
							CHANNELS 3 Zrotation Yrotation Xrotation
							JOINT LeftForeArm
							{
								OFFSET -0.000000 28.724781 -0.000000
								CHANNELS 3 Zrotation Yrotation Xrotation
								JOINT LeftHand
								{
									OFFSET 0.644384 25.716167 -0.328871
									CHANNELS 3 Zrotation Yrotation Xrotation
									JOINT LeftHandThumb1
									{
										OFFSET 2.867323 3.959563 2.944291
										CHANNELS 3 Zrotation Yrotation Xrotation
										JOINT LeftHandThumb2
										{
											OFFSET 0.000000 3.350399 0.000000
											CHANNELS 3 Zrotation Yrotation Xrotation
											JOINT LeftHandThumb3
											{
												OFFSET 0.000000 3.756509 0.000000
												CHANNELS 3 Zrotation Yrotation Xrotation
												JOINT LeftHandThumb4
												{
													OFFSET -0.000000 3.100000 0.000000
													CHANNELS 3 Zrotation Yrotation Xrotation
													End Site
													{
														OFFSET 0.000000 0.000000 0.000000
													}
												}
											}
										}
									}
									JOINT LeftHandIndex1
									{
										OFFSET 0.086752 10.030893 2.345280
										CHANNELS 3 Zrotation Yrotation Xrotation
										JOINT LeftHandIndex2
										{
											OFFSET -0.000000 4.061090 -0.000000
											CHANNELS 3 Zrotation Yrotation Xrotation
											JOINT LeftHandIndex3
											{
												OFFSET -0.000000 3.248873 -0.000000
												CHANNELS 3 Zrotation Yrotation Xrotation
												JOINT LeftHandIndex4
												{
													OFFSET -0.000000 2.639709 -0.000000
													CHANNELS 3 Zrotation Yrotation Xrotation
													End Site
													{
														OFFSET 0.000000 0.000000 0.000000
													}
												}
											}
										}
									}
									JOINT LeftHandMiddle1
									{
										OFFSET -0.104102 9.502952 0.006768
										CHANNELS 3 Zrotation Yrotation Xrotation
										JOINT LeftHandMiddle2
										{
											OFFSET 0.000000 4.568727 -0.000000
											CHANNELS 3 Zrotation Yrotation Xrotation
											JOINT LeftHandMiddle3
											{
												OFFSET 0.000000 3.654981 0.000000
												CHANNELS 3 Zrotation Yrotation Xrotation
												JOINT LeftHandMiddle4
												{
													OFFSET 0.000000 2.741236 0.000000
													CHANNELS 3 Zrotation Yrotation Xrotation
													End Site
													{
														OFFSET 0.000000 0.000000 0.000000
													}
												}
											}
										}
									}
									JOINT LeftHandRing1
									{
										OFFSET -0.086752 8.921708 -2.267442
										CHANNELS 3 Zrotation Yrotation Xrotation
										JOINT LeftHandRing2
										{
											OFFSET -0.000000 4.061090 -0.000000
											CHANNELS 3 Zrotation Yrotation Xrotation
											JOINT LeftHandRing3
											{
												OFFSET 0.000000 3.654981 0.000000
												CHANNELS 3 Zrotation Yrotation Xrotation
												JOINT LeftHandRing4
												{
													OFFSET -0.000000 2.741236 -0.000000
													CHANNELS 3 Zrotation Yrotation Xrotation
													End Site
													{
														OFFSET 0.000000 0.000000 0.000000
													}
												}
											}
										}
									}
									JOINT LeftHandPinky1
									{
										OFFSET 0.173504 7.976997 -4.467199
										CHANNELS 3 Zrotation Yrotation Xrotation
										JOINT LeftHandPinky2
										{
											OFFSET 0.000000 3.350399 -0.000000
											CHANNELS 3 Zrotation Yrotation Xrotation
											JOINT LeftHandPinky3
											{
												OFFSET 0.000000 2.842763 0.000000
												CHANNELS 3 Zrotation Yrotation Xrotation
												JOINT LeftHandPinky4
												{
													OFFSET -0.000000 2.639709 -0.000000
													CHANNELS 3 Zrotation Yrotation Xrotation
													End Site
													{
														OFFSET 0.000000 0.000000 0.000000
													}
												}
											}
										}
									}
									JOINT LeftForeArmEnd
									{
										OFFSET 0.000000 0.000000 0.000000
										CHANNELS 3 Zrotation Yrotation Xrotation
										End Site
										{
											OFFSET 0.000000 0.000000 0.000000
										}
									}
								}
								JOINT LeftArmEnd
								{
									OFFSET 0.000000 0.000000 0.000000
									CHANNELS 3 Zrotation Yrotation Xrotation
									End Site
									{
										OFFSET 0.000000 0.000000 0.000000
									}
								}
							}
						}
					}
				}
			}
		}
	}
	JOINT RightUpLeg
	{
		OFFSET -11.289943 0.000000 -0.000000
		CHANNELS 3 Zrotation Yrotation Xrotation
		JOINT RightLeg
		{
			OFFSET 0.000000 -38.200325 -0.000000
			CHANNELS 3 Zrotation Yrotation Xrotation
			JOINT RightFoot
			{
				OFFSET -0.000000 -39.900856 -0.000000
				CHANNELS 3 Zrotation Yrotation Xrotation
				JOINT RightToeBase
				{
					OFFSET -0.000000 0.000000 15.261641
					CHANNELS 3 Zrotation Yrotation Xrotation
					JOINT RightToeBaseEnd
					{
						OFFSET 0.000000 0.000000 7.370709
						CHANNELS 3 Zrotation Yrotation Xrotation
						End Site
						{
							OFFSET 0.000000 0.000000 0.000000
						}
					}
				}
				JOINT RightLegEnd
				{
					OFFSET 0.000000 0.000000 0.000000
					CHANNELS 3 Zrotation Yrotation Xrotation
					End Site
					{
						OFFSET 0.000000 0.000000 0.000000
					}
				}
			}
			JOINT RightUpLegEnd
			{
				OFFSET 0.000000 0.000000 0.000000
				CHANNELS 3 Zrotation Yrotation Xrotation
				End Site
				{
					OFFSET 0.000000 0.000000 0.000000
				}
			}
		}
	}
	JOINT LeftUpLeg
	{
		OFFSET 11.315661 -0.000000 -0.000000
		CHANNELS 3 Zrotation Yrotation Xrotation
		JOINT LeftLeg
		{
			OFFSET 0.000000 -38.200325 0.000000
			CHANNELS 3 Zrotation Yrotation Xrotation
			JOINT LeftFoot
			{
				OFFSET 0.000000 -39.900856 0.000000
				CHANNELS 3 Zrotation Yrotation Xrotation
				JOINT LeftToeBase
				{
					OFFSET 0.000000 -0.000000 15.261641
					CHANNELS 3 Zrotation Yrotation Xrotation
					JOINT LeftToeBaseEnd
					{
						OFFSET -0.000000 0.000000 7.539996
						CHANNELS 3 Zrotation Yrotation Xrotation
						End Site
						{
							OFFSET 0.000000 0.000000 0.000000
						}
					}
				}
				JOINT LeftLegEnd
				{
					OFFSET 0.000000 0.000000 0.000000
					CHANNELS 3 Zrotation Yrotation Xrotation
					End Site
					{
						OFFSET 0.000000 0.000000 0.000000
					}
				}
			}
			JOINT LeftUpLegEnd
			{
				OFFSET 0.000000 0.000000 0.000000
				CHANNELS 3 Zrotation Yrotation Xrotation
				End Site
				{
					OFFSET 0.000000 0.000000 0.000000
				}
			}
		}
	}
}
MOTION
Frames: 5
Frame Time: 0.016667
0.717293 88.513641 3.606412 -0.807625 -0.145498 -10.211953 2.974575 -0.200603 8.045942 0.343280 -0.161376 3.810282 0.356144 -1.985393 3.162312 -0.570617 -0.651933 1.640799 0.102534 -1.376300 4.726995 -0.786954 -0.955029 -2.695320 -0.607556 -0.996725 -19.207796 0.000000 0.000000 0.000000 90.633385 -0.099940 10.407545 65.336456 -33.843838 4.224480 -0.450088 10.791811 20.358622 7.570276 13.503039 -6.307324 10.937046 -1.865515 39.738762 0.000000 0.000000 -26.639997 0.000000 0.000000 -18.499998 0.000000 0.000000 0.000000 13.612741 0.000000 -9.950699 9.528920 0.000000 0.000000 9.528920 0.000000 0.000000 0.000000 0.000000 0.000000 12.607718 -0.000000 -10.819229 8.825400 0.000000 0.000000 8.825400 0.000000 0.000000 0.000000 0.000000 0.000000 14.150433 -0.000000 -9.929859 9.905301 0.000000 0.000000 9.905301 0.000000 0.000000 0.000000 0.000000 0.000000 14.986264 0.000000 -10.561732 10.490384 0.000000 0.000000 10.490384 0.000000 0.000000 0.000000 0.000000 0.000000 0.000000 0.000000 0.000000 0.000000 0.000000 0.000000 -87.418159 -0.270548 6.233880 -75.998817 26.272923 -6.204398 -0.339548 -5.544444 38.662571 0.678041 -17.794977 -13.609646 -10.637670 1.840800 39.870983 0.000000 0.000000 -25.919998 0.000000 0.000000 -18.000004 0.000000 0.000000 0.000000 -12.784686 -0.000000 -9.414296 -8.949280 0.000000 0.000000 -8.949280 0.000000 0.000000 0.000000 0.000000 0.000000 -12.048728 -0.000000 -10.392732 -8.434110 0.000000 0.000000 -8.434110 0.000000 0.000000 0.000000 0.000000 0.000000 -13.654737 -0.000000 -11.575627 -9.558316 0.000000 0.000000 -9.558316 0.000000 0.000000 0.000000 0.000000 0.000000 -14.250447 -0.000000 -12.885098 -9.975311 0.000000 0.000000 -9.975311 0.000000 0.000000 0.000000 0.000000 0.000000 0.000000 0.000000 0.000000 0.000000 0.000000 0.000000 1.136141 -14.518364 12.126021 -0.031131 -0.345450 4.775295 -3.873879 -13.260001 19.727701 -0.519588 0.644877 -18.908152 0.000000 0.000000 0.000000 0.000000 0.000000 0.000000 0.000000 0.000000 0.000000 8.610489 -1.127510 2.905101 0.263057 0.928557 15.818080 -1.732145 6.252617 17.146843 1.232856 -0.489963 -24.107113 0.000000 0.000000 0.000000 0.000000 0.000000 0.000000 0.000000 0.000000 0.000000 
0.708185 87.919243 3.350503 -1.275133 -0.327400 -9.603470 3.514419 -0.721011 6.987853 1.348950 -0.521065 4.813442 -0.477045 -1.480164 2.448543 -1.167216 -0.578037 3.788928 -0.359806 -0.450296 3.838441 -0.793000 -0.688135 -3.664988 -0.748028 -0.872040 -18.194574 0.000000 0.000000 0.000000 89.896584 -0.216624 9.714604 65.304916 -31.970898 5.800523 -0.149538 12.990083 20.682453 7.690539 11.504927 -4.903039 10.811808 -1.878893 39.657864 -0.000001 0.000031 -26.430708 0.000006 0.000043 -18.076286 0.000008 -0.000004 -0.000025 13.156165 0.023791 -10.015224 9.118488 -0.046559 0.030296 9.136941 -0.019910 0.011253 -0.000029 0.000047 -0.000034 12.649118 0.015988 -10.988354 8.562531 -0.021391 -0.001021 8.650206 -0.002968 -0.002198 0.000027 0.000007 0.000007 14.840289 -0.061330 -10.557878 9.710036 0.024504 0.063749 9.693462 -0.005993 0.040782 -0.000018 0.000398 0.000022 15.471575 -0.151246 -11.548690 10.381781 0.019984 0.396000 10.191040 -0.038464 0.318098 0.000350 -0.000005 0.000009 0.000000 0.000000 0.000000 0.000000 0.000000 0.000000 -87.087402 -0.214496 6.879910 -74.510330 25.836046 -5.379798 -0.514956 -9.022786 39.829571 1.449707 -15.335374 -14.056380 -10.395818 1.815075 39.814030 -0.000007 0.000026 -25.530680 -0.000056 -0.000025 -17.580517 -0.000575 -0.000007 0.000352 -12.994333 0.115973 -9.397530 -8.963561 -0.031142 0.037973 -9.181911 -0.004605 0.030452 0.000010 -0.000084 -0.000014 -12.204788 0.048381 -10.311838 -8.661366 -0.023297 0.021170 -8.430971 0.000964 0.024550 -0.000186 -0.000029 -0.000087 -13.673563 -0.016557 -10.938310 -9.695695 0.039789 -0.096979 -9.562276 0.001119 -0.058171 0.000479 0.000009 0.000004 -13.651410 -0.099974 -11.932720 -10.057307 0.042235 -0.243067 -10.066554 -0.023329 -0.216389 0.000065 -0.000013 -0.000031 0.000000 0.000000 0.000000 0.000000 0.000000 0.000000 1.800201 -14.789394 11.559311 0.016892 -0.422390 4.959363 -5.154322 -13.626738 20.192949 -0.768256 0.553994 -18.848656 0.000000 0.000000 0.000000 0.000000 0.000000 0.000000 0.000000 0.000000 0.000000 8.367589 -0.420270 3.749199 0.285003 0.915133 14.812385 -3.149669 6.005664 21.875841 0.810879 -0.450369 -22.981987 0.000000 0.000000 0.000000 0.000000 0.000000 0.000000 0.000000 0.000000 0.000000 
0.626734 87.893875 3.301217 -1.239635 -0.147978 -9.670483 3.516942 -0.719396 6.948872 1.335929 -0.514783 4.900128 -0.527515 -1.467319 2.409899 -1.140870 -0.582297 3.935897 -0.278226 -0.535505 3.894787 -0.801685 -0.752107 -3.582057 -0.755419 -0.869221 -18.237545 0.000000 0.000000 0.000000 89.969429 -0.237318 9.719379 65.162926 -31.729925 5.842982 -0.167201 13.081335 20.851805 7.796654 11.498420 -5.136773 10.783978 -1.877740 39.674461 -0.000008 0.000053 -26.325569 0.000019 0.000036 -18.008780 0.000020 0.000005 -0.000042 13.049386 0.026645 -9.846269 8.993625 -0.048810 0.032518 8.984069 -0.021151 0.014712 -0.000009 0.000061 -0.000025 12.525411 0.016298 -10.863799 8.451976 -0.022984 0.001079 8.530497 -0.003601 -0.001022 0.000021 -0.000011 -0.000009 14.693402 -0.063700 -10.468061 9.600731 0.026142 0.055094 9.593678 -0.004237 0.034313 -0.000025 0.000360 0.000002 15.339576 -0.156579 -11.473227 10.324677 0.026721 0.370645 10.128423 -0.034372 0.301970 0.000383 0.000006 0.000014 0.000000 0.000000 0.000000 0.000000 0.000000 0.000000 -87.057541 -0.223088 6.802009 -74.489151 25.716686 -5.239439 -0.510288 -9.063404 39.953423 1.242905 -15.097706 -14.109411 -10.338967 1.802287 39.841129 0.000013 0.000028 -25.406513 -0.000054 -0.000011 -17.492125 -0.000687 0.000005 0.000247 -12.718518 0.122047 -9.381744 -8.861486 -0.031481 0.037850 -9.071253 -0.004799 0.027115 0.000023 -0.000044 -0.000005 -11.908498 0.050533 -10.336397 -8.585235 -0.023686 0.018401 -8.357749 0.000919 0.024192 -0.000280 -0.000019 -0.000106 -13.402888 -0.016413 -11.038722 -9.629046 0.039958 -0.095666 -9.498153 0.001289 -0.056961 0.000508 0.000015 0.000010 -13.426700 -0.101053 -12.068557 -10.024186 0.041130 -0.238377 -10.054189 -0.023951 -0.211976 0.000074 0.000010 -0.000052 0.000000 0.000000 0.000000 0.000000 0.000000 0.000000 1.815719 -14.999897 11.521127 0.016145 -0.411629 4.945087 -5.308260 -13.617969 20.155535 -0.749105 0.534885 -18.868860 0.000000 0.000000 0.000000 0.000000 0.000000 0.000000 0.000000 0.000000 0.000000 8.517187 -0.424306 3.560219 0.292420 0.931987 14.881824 -3.252507 5.763229 21.956377 0.825263 -0.465833 -23.073816 0.000000 0.000000 0.000000 0.000000 0.000000 0.000000 0.000000 0.000000 0.000000 
0.563358 87.877274 3.260195 -1.178648 0.023230 -9.724466 3.504716 -0.706892 6.935033 1.338714 -0.512584 4.909936 -0.593045 -1.403264 2.439821 -1.124615 -0.571787 4.020681 -0.257790 -0.577374 3.903696 -0.812324 -0.805691 -3.530031 -0.749431 -0.863882 -18.293377 0.000000 0.000000 0.000000 89.996185 -0.231702 9.768477 65.238914 -31.322836 5.699791 -0.188937 13.276250 21.271524 7.630209 11.453967 -5.300351 10.763343 -1.877828 39.685837 -0.000008 0.000052 -26.247892 0.000019 0.000037 -17.958895 0.000020 0.000005 -0.000042 12.910646 0.027604 -9.722165 8.880554 -0.050263 0.032840 8.845521 -0.021519 0.015822 -0.000010 0.000061 -0.000025 12.384454 0.015690 -10.788866 8.355661 -0.023731 0.001981 8.431880 -0.003944 -0.000745 0.000021 -0.000009 -0.000008 14.562826 -0.064694 -10.449860 9.505916 0.026628 0.049334 9.505896 -0.003327 0.030074 -0.000023 0.000407 0.000002 15.214572 -0.156955 -11.497257 10.263039 0.030285 0.356792 10.066972 -0.033590 0.292524 0.000423 0.000006 0.000007 0.000000 0.000000 0.000000 0.000000 0.000000 0.000000 -86.991844 -0.223638 6.758345 -74.477203 25.575901 -5.122269 -0.497879 -9.115975 40.120934 1.229638 -14.858285 -14.045881 -10.299318 1.795563 39.858734 0.000014 0.000028 -25.327723 -0.000051 -0.000012 -17.432158 -0.000724 0.000004 0.000209 -12.513401 0.123294 -9.270516 -8.759391 -0.032060 0.036281 -8.960692 -0.005286 0.023305 0.000020 0.000007 -0.000005 -11.695475 0.050910 -10.272718 -8.505938 -0.024368 0.015449 -8.282683 0.000703 0.023394 -0.000364 -0.000019 -0.000118 -13.206291 -0.014758 -11.058204 -9.556322 0.040409 -0.093491 -9.434297 0.001446 -0.054826 0.000521 0.000014 0.000010 -13.276087 -0.101324 -12.138883 -9.975453 0.041040 -0.231860 -10.021065 -0.024408 -0.203346 0.000056 0.000010 -0.000052 0.000000 0.000000 0.000000 0.000000 0.000000 0.000000 1.794379 -15.164889 11.500044 0.016577 -0.402413 4.931151 -5.436289 -13.644763 20.128704 -0.739976 0.519072 -18.879372 0.000000 0.000000 0.000000 0.000000 0.000000 0.000000 0.000000 0.000000 0.000000 8.584250 -0.459637 3.439036 0.296577 0.943010 14.895322 -3.326366 5.575242 22.022947 0.835352 -0.478975 -23.142214 0.000000 0.000000 0.000000 0.000000 0.000000 0.000000 0.000000 0.000000 0.000000 
0.517789 87.860825 3.229332 -1.109968 0.179156 -9.768217 3.490988 -0.693592 6.934307 1.346229 -0.512290 4.871802 -0.662524 -1.337858 2.503957 -1.118099 -0.563006 4.068192 -0.265240 -0.593947 3.875246 -0.826532 -0.848539 -3.499681 -0.741858 -0.858823 -18.338490 0.000000 0.000000 0.000000 90.012444 -0.214286 9.815252 65.393814 -30.830175 5.428038 -0.217155 13.495266 21.918230 7.349784 11.391832 -5.383918 10.744279 -1.877295 39.696735 -0.000008 0.000051 -26.182352 0.000018 0.000039 -17.916855 0.000019 0.000005 -0.000041 12.758473 0.028096 -9.580984 8.764524 -0.051747 0.035959 8.705713 -0.021838 0.019371 -0.000011 0.000061 -0.000025 12.225278 0.014484 -10.692150 8.257027 -0.024218 0.003814 8.331509 -0.004284 0.000531 0.000021 -0.000005 -0.000007 14.413826 -0.064937 -10.426074 9.403410 0.026800 0.043150 9.408269 -0.002691 0.025363 -0.000021 0.000494 0.000003 15.061062 -0.155202 -11.527155 10.183411 0.032850 0.342095 9.993994 -0.033269 0.281791 0.000454 0.000006 0.000003 0.000000 0.000000 0.000000 0.000000 0.000000 0.000000 -86.934799 -0.225486 6.725774 -74.480804 25.410528 -5.088120 -0.483257 -9.191742 40.377613 1.323101 -14.730054 -13.957980 -10.269852 1.791381 39.871838 0.000014 0.000028 -25.272045 -0.000049 -0.000013 -17.388416 -0.000717 0.000004 0.000196 -12.340985 0.123020 -9.149828 -8.660173 -0.032842 0.032851 -8.854201 -0.006359 0.018408 0.000018 0.000060 -0.000006 -11.519743 0.050406 -10.188299 -8.425779 -0.025181 0.011971 -8.210505 0.000270 0.022108 -0.000430 -0.000018 -0.000124 -13.054926 -0.012849 -11.048176 -9.485788 0.040937 -0.090111 -9.374928 0.001757 -0.051708 0.000561 0.000013 0.000010 -13.178830 -0.100843 -12.181109 -9.931097 0.041438 -0.221763 -9.993001 -0.024396 -0.192650 0.000048 0.000010 -0.000052 0.000000 0.000000 0.000000 0.000000 0.000000 0.000000 1.755747 -15.309460 11.500808 0.017817 -0.394169 4.914824 -5.534316 -13.697572 20.094360 -0.736671 0.504562 -18.873043 0.000000 0.000000 0.000000 0.000000 0.000000 0.000000 0.000000 0.000000 0.000000 8.602474 -0.514211 3.349281 0.298752 0.949686 14.888431 -3.371227 5.410739 22.073326 0.840643 -0.491168 -23.193125 0.000000 0.000000 0.000000 0.000000 0.000000 0.000000 0.000000 0.000000 0.000000 
